<?xml version="1.0" standalone="no"?>
<!DOCTYPE svg PUBLIC "-//W3C//DTD SVG 20010904//EN"
 "http://www.w3.org/TR/2001/REC-SVG-20010904/DTD/svg10.dtd">
<svg version="1.0" xmlns="http://www.w3.org/2000/svg"
 width="648.000000pt" height="648.000000pt" viewBox="0 0 648.000000 648.000000"
 preserveAspectRatio="xMidYMid meet">
<metadata>
Created by potrace 1.11, written by Peter Selinger 2001-2013
</metadata>
<g transform="translate(0.000000,648.000000) scale(0.100000,-0.100000)"
fill="#000000" stroke="none">
<path d="M5999 6475 c-3 -2 -20 -7 -39 -10 -125 -22 -372 -126 -550 -233 -19
-12 -50 -29 -67 -38 -18 -9 -33 -20 -33 -25 0 -5 -6 -9 -13 -9 -7 0 -76 -42
-153 -93 -97 -66 -147 -93 -164 -91 -14 1 -25 3 -25 4 0 1 -17 6 -47 13 -7 1
-19 6 -25 10 -7 5 -13 6 -13 4 0 -3 -57 11 -127 30 -71 19 -135 35 -143 37 -8
1 -33 7 -55 14 -22 6 -51 13 -65 16 -14 2 -77 19 -140 36 -63 17 -126 34 -140
36 -14 3 -38 9 -55 14 -16 5 -41 12 -55 14 -14 3 -95 24 -180 46 -85 23 -162
43 -170 45 -28 6 -95 23 -265 67 -164 43 -172 44 -220 31 -27 -8 -61 -16 -75
-19 -14 -3 -50 -12 -80 -20 -30 -8 -66 -17 -79 -20 -14 -3 -57 -14 -97 -25
-40 -11 -84 -22 -96 -25 -13 -3 -32 -7 -43 -9 -11 -3 -50 -13 -87 -24 -38 -11
-68 -17 -68 -14 0 3 -7 0 -15 -7 -8 -7 -15 -10 -15 -7 0 3 -21 0 -47 -8 -41
-12 -581 -150 -623 -160 -8 -2 -96 -24 -195 -50 -99 -25 -187 -48 -195 -50 -8
-1 -53 -13 -100 -25 -47 -12 -92 -23 -100 -25 -132 -32 -562 -144 -565 -147
-7 -7 -18 -446 -17 -678 0 -189 5 -323 16 -475 10 -125 17 -211 20 -245 11
-99 18 -151 27 -213 5 -37 11 -86 14 -110 7 -57 64 -381 76 -437 6 -25 13 -55
15 -66 22 -116 76 -333 130 -529 32 -113 145 -451 177 -529 l24 -59 -43 -56
c-44 -57 -200 -256 -235 -301 -25 -32 -99 -129 -121 -161 -10 -13 -46 -62 -80
-109 -63 -88 -234 -340 -254 -375 -10 -17 -106 -180 -134 -225 -23 -39 -131
-263 -134 -280 -1 -3 -4 -9 -7 -15 -9 -14 -49 -138 -54 -166 -3 -13 -9 -45
-13 -71 -26 -138 6 -255 93 -341 106 -105 228 -125 440 -71 124 31 412 163
533 245 24 16 46 29 49 29 4 0 23 11 42 24 186 123 271 175 282 172 8 -2 23
-8 34 -12 100 -38 225 -40 320 -4 68 26 149 82 185 129 14 17 28 31 31 31 3 0
61 -55 130 -123 117 -115 208 -199 289 -264 19 -15 37 -30 40 -33 3 -3 34 -27
70 -53 36 -27 72 -54 80 -60 29 -24 151 -107 156 -107 3 0 20 -11 38 -25 18
-14 38 -25 44 -25 7 0 12 -3 12 -8 0 -4 9 -12 20 -17 16 -8 133 -79 216 -132
18 -11 28 -8 92 32 40 25 76 45 81 45 5 0 11 7 15 15 3 8 10 15 16 15 12 0
198 116 218 137 7 7 17 13 21 13 15 0 188 131 355 270 44 36 366 360 404 405
23 28 53 64 67 80 14 17 58 73 98 125 40 52 75 97 80 98 4 2 7 8 7 13 0 5 15
28 33 52 17 24 38 53 45 63 54 82 116 181 144 229 18 31 42 71 52 88 25 42
173 325 187 357 5 14 18 43 29 65 74 161 205 493 202 515 0 3 3 10 7 15 5 6
25 64 46 130 20 66 39 127 42 135 4 8 7 20 9 27 1 7 12 43 23 80 17 56 84 315
96 373 2 8 15 71 30 140 15 69 29 139 31 155 3 17 9 50 14 75 8 39 15 85 35
210 2 14 7 45 10 70 3 25 10 71 15 104 5 32 9 61 8 65 -1 3 1 24 5 46 6 38 9
64 23 225 12 129 13 147 19 280 3 74 8 145 10 157 5 22 55 102 83 131 6 7 12
17 12 22 0 5 6 15 13 22 32 34 210 320 279 450 20 37 53 104 73 150 20 46 42
94 49 108 7 14 18 45 25 70 8 25 17 56 22 70 18 54 31 165 26 226 -11 124 -86
232 -195 282 -45 21 -75 26 -148 29 -50 2 -93 1 -95 -2z m51 -394 c0 -5 -7
-27 -15 -50 -8 -22 -12 -41 -10 -41 7 0 -25 -73 -97 -217 -39 -79 -74 -143
-78 -143 -4 0 -8 21 -8 48 0 26 -1 55 -1 64 -1 16 -12 22 -61 32 -14 3 -72 17
-130 32 -58 14 -110 27 -117 28 -7 1 -15 4 -18 7 -5 6 188 119 204 119 5 0 16
6 23 13 14 13 133 66 218 97 60 21 90 25 90 11z m-2645 -327 c33 -8 76 -19 95
-24 43 -10 51 -12 170 -44 111 -29 414 -106 438 -111 9 -2 80 -20 157 -40 77
-20 147 -38 155 -40 12 -3 288 -72 360 -91 8 -2 35 -8 60 -15 25 -6 52 -12 60
-15 8 -2 86 -22 174 -44 87 -22 162 -43 166 -45 6 -4 6 -501 1 -522 -4 -14 -8
-21 -22 -38 -14 -17 -47 -57 -164 -203 -5 -7 -15 -18 -20 -25 -6 -7 -33 -39
-60 -72 -27 -33 -79 -94 -114 -135 -35 -41 -84 -100 -110 -130 -25 -30 -56
-65 -68 -78 -13 -12 -23 -27 -23 -32 0 -4 -4 -10 -8 -12 -6 -2 -153 -164 -191
-210 -4 -4 -24 28 -45 70 -117 228 -306 425 -521 542 -115 62 -280 118 -405
137 -70 10 -297 10 -372 0 -85 -12 -203 -44 -288 -80 -81 -33 -230 -115 -255
-141 -9 -8 -29 -23 -45 -33 -84 -49 -269 -275 -335 -408 -11 -22 -22 -42 -26
-45 -3 -3 -8 -14 -12 -25 -3 -11 -19 -58 -36 -105 -17 -47 -31 -87 -30 -90 0
-5 -5 -35 -16 -90 -48 -240 -4 -545 113 -770 43 -83 64 -122 72 -130 3 -3 19
-25 35 -50 46 -69 222 -240 300 -292 39 -25 104 -63 145 -83 41 -21 77 -40 79
-41 2 -2 -8 -13 -23 -25 -14 -11 -32 -26 -39 -33 -26 -25 -135 -123 -186 -166
-29 -25 -61 -52 -70 -60 -9 -9 -50 -45 -91 -80 -41 -35 -85 -73 -97 -83 l-22
-19 -54 83 c-53 83 -72 116 -149 254 -34 61 -164 325 -188 380 -114 267 -236
615 -286 820 -1 6 -14 57 -29 115 -44 176 -96 419 -119 560 -3 19 -7 44 -10
55 -2 11 -7 43 -10 70 -4 28 -9 62 -11 76 -5 28 -9 62 -20 149 -14 119 -16
137 -20 200 -3 36 -7 83 -10 105 -9 74 -18 308 -19 500 l-1 190 65 17 c36 9
137 35 225 58 88 22 169 43 180 44 11 2 20 4 20 5 0 3 11 5 50 14 11 3 40 10
65 17 25 7 52 14 60 15 8 2 17 4 20 5 3 1 8 2 12 1 4 0 19 4 33 9 14 5 36 12
48 14 12 2 42 9 67 16 25 7 54 14 65 16 11 2 50 12 88 23 37 11 67 17 67 15 0
-3 6 -2 13 3 12 7 20 10 62 18 11 2 63 16 115 30 52 13 107 27 122 30 15 3 38
9 52 15 15 5 26 7 26 4 0 -2 8 0 18 5 9 5 31 11 47 14 17 3 93 22 170 42 268
71 242 68 350 39z m1751 -1756 c-4 -18 -14 -71 -22 -118 -19 -111 -20 -115
-50 -250 -13 -63 -27 -128 -30 -143 -29 -152 -209 -742 -236 -774 -6 -7 -8
-13 -5 -13 7 0 -80 -214 -142 -347 -74 -160 -166 -337 -190 -365 -8 -10 -10
-18 -5 -18 5 0 4 -4 -1 -8 -6 -4 -34 -47 -64 -97 -30 -49 -58 -91 -63 -93 -4
-2 -8 -8 -8 -13 0 -5 -17 -33 -37 -62 -20 -28 -46 -65 -57 -82 -12 -16 -23
-32 -26 -35 -3 -3 -29 -36 -58 -75 -141 -185 -308 -360 -498 -526 -84 -72
-315 -240 -347 -252 -15 -6 -58 12 -77 33 -3 3 -25 19 -50 35 -25 16 -47 32
-50 35 -3 3 -32 25 -65 50 -62 46 -86 67 -164 135 -53 45 -286 279 -316 316
-59 73 -73 87 -79 82 -3 -4 -6 -4 -6 -1 0 2 28 27 63 55 34 28 76 63 92 78 17
14 47 40 68 58 21 18 49 41 61 52 12 11 51 45 86 75 35 30 71 62 80 70 9 8 56
51 106 95 49 44 109 99 134 122 90 83 90 83 149 84 31 0 63 2 71 3 8 2 35 6
60 9 46 6 73 11 125 24 37 9 36 8 60 17 11 4 31 12 45 16 14 4 34 12 45 16 11
4 22 8 25 8 24 6 142 71 213 119 169 112 310 268 406 448 48 90 104 241 116
311 3 18 8 41 11 51 6 19 13 85 19 172 1 28 3 53 4 57 1 4 25 33 55 65 29 32
64 70 77 85 13 14 56 61 94 104 39 42 80 88 93 102 12 14 44 50 70 80 26 30
59 68 75 86 15 17 51 59 80 93 28 35 56 63 61 63 5 0 5 -15 2 -32z m-1764 -22
c18 -3 44 -8 58 -11 46 -9 133 -44 171 -70 21 -14 42 -25 47 -25 4 0 42 -36
84 -80 121 -126 178 -260 183 -434 l3 -90 -275 -273 c-151 -151 -284 -278
-296 -282 -30 -11 -167 -6 -209 8 -20 6 -44 13 -56 16 -29 5 -131 55 -172 84
-67 47 -155 149 -197 229 -24 43 -43 88 -43 99 0 11 -3 23 -7 27 -4 3 -8 14
-9 24 -2 9 -6 32 -9 50 -7 40 -7 157 0 197 29 152 105 286 220 387 78 69 209
129 311 143 27 3 50 8 52 10 4 4 101 -2 144 -9z m-1884 -2116 c38 -74 90 -170
115 -212 l46 -77 -57 -28 c-33 -15 -83 -53 -117 -88 -97 -97 -136 -201 -132
-348 l3 -88 -32 -24 c-18 -14 -37 -25 -42 -25 -6 0 -12 -4 -14 -8 -12 -29
-504 -305 -583 -327 -16 -5 -32 -9 -35 -10 -61 -18 -93 -25 -97 -21 -6 5 30
123 52 171 64 142 137 280 176 337 11 14 19 28 19 31 0 6 64 106 78 123 6 6
18 26 27 45 10 19 21 36 24 39 4 3 29 39 57 80 27 41 54 82 61 90 7 8 41 56
77 105 36 50 69 95 74 100 4 6 42 55 82 109 41 55 87 114 103 130 15 17 27 35
27 40 0 19 18 -10 88 -144z"/>
<path d="M2133 5059 c-85 -16 -159 -68 -201 -141 -23 -41 -42 -128 -36 -165 2
-13 6 -33 8 -45 16 -92 112 -185 221 -215 49 -14 141 -5 189 18 151 71 210
243 134 394 -35 69 -122 136 -194 150 -65 12 -81 12 -121 4z m87 -274 c16 -19
6 -45 -18 -45 -28 0 -43 20 -31 42 12 22 32 23 49 3z"/>
</g>
</svg>
